<svg width="38" height="38" xmlns="http://www.w3.org/2000/svg" xmlns:xlink="http://www.w3.org/1999/xlink" xml:space="preserve" overflow="hidden"><g transform="translate(-633 -270)"><path d="M663.083 277.917 650.417 277.917C650.417 279.665 648.998 281.083 647.25 281.083 645.502 281.083 644.083 279.665 644.083 277.917L640.917 277.917C638.584 277.917 636.694 279.808 636.694 282.139L636.694 295.861C636.694 298.192 638.584 300.083 640.917 300.083L644.083 300.083C644.083 298.335 645.502 296.917 647.25 296.917 648.998 296.917 650.417 298.335 650.417 300.083L663.083 300.083C665.416 300.083 667.306 298.192 667.306 295.861L667.306 282.139C667.306 279.808 665.416 277.917 663.083 277.917Z" stroke="#33338B" stroke-width="2.11111" fill="none"/><path d="M647.25 287.55C648.124 287.55 648.833 286.841 648.833 285.966 648.833 285.092 648.124 284.383 647.25 284.383 646.376 284.383 645.667 285.092 645.667 285.966 645.667 286.841 646.376 287.55 647.25 287.55Z" stroke="#33338B" stroke-width="2.11111" fill="none"/><path d="M647.25 293.617C648.124 293.617 648.833 292.908 648.833 292.034 648.833 291.159 648.124 290.45 647.25 290.45 646.376 290.45 645.667 291.159 645.667 292.034 645.667 292.908 646.376 293.617 647.25 293.617Z" stroke="#33338B" stroke-width="2.11111" fill="none"/><path d="M663.083 277.917 650.417 277.917C650.417 279.665 648.998 281.083 647.25 281.083 645.502 281.083 644.083 279.665 644.083 277.917L640.917 277.917C638.584 277.917 636.694 279.808 636.694 282.139L636.694 295.861C636.694 298.192 638.584 300.083 640.917 300.083L644.083 300.083C644.083 298.335 645.502 296.917 647.25 296.917 648.998 296.917 650.417 298.335 650.417 300.083L663.083 300.083C665.416 300.083 667.306 298.192 667.306 295.861L667.306 282.139C667.306 279.808 665.416 277.917 663.083 277.917Z" stroke="#33338B" stroke-width="3.16667" stroke-linecap="round" stroke-linejoin="round" fill="none"/></g></svg>