<svg width="37" height="37" xmlns="http://www.w3.org/2000/svg" xmlns:xlink="http://www.w3.org/1999/xlink" xml:space="preserve" overflow="hidden"><g transform="translate(-45 -150)"><path d="M74.2917 156.167 62.4722 156.167C61.6212 156.167 60.9306 156.857 60.9306 157.708 60.9306 158.841 60.0076 159.764 58.875 159.764 57.7424 159.764 56.8194 158.841 56.8194 157.708 56.8194 156.857 56.1288 156.167 55.2778 156.167L52.7083 156.167C49.5901 156.167 47.0556 158.701 47.0556 161.819L47.0556 175.181C47.0556 178.299 49.5901 180.833 52.7083 180.833L55.2778 180.833C56.1288 180.833 56.8194 180.143 56.8194 179.292 56.8194 178.159 57.7424 177.236 58.875 177.236 60.0076 177.236 60.9306 178.159 60.9306 179.292 60.9306 180.143 61.6212 180.833 62.4722 180.833L74.2917 180.833C77.4099 180.833 79.9444 178.299 79.9444 175.181L79.9444 161.819C79.9444 158.701 77.4099 156.167 74.2917 156.167ZM58.875 172.998C58.024 172.998 57.3333 172.307 57.3333 171.456 57.3333 170.605 58.024 169.914 58.875 169.914 59.726 169.914 60.4167 170.605 60.4167 171.456 60.4167 172.307 59.726 172.998 58.875 172.998ZM58.875 167.088C58.024 167.088 57.3333 166.397 57.3333 165.546 57.3333 164.695 58.024 164.005 58.875 164.005 59.726 164.005 60.4167 164.695 60.4167 165.546 60.4167 166.397 59.726 167.088 58.875 167.088Z" fill="#33338B"/></g></svg>