<svg width="38" height="37" xmlns="http://www.w3.org/2000/svg" xmlns:xlink="http://www.w3.org/1999/xlink" xml:space="preserve" overflow="hidden"><g transform="translate(-633 -351)"><path d="M18.5 33.4028C25.5954 33.4028 31.3472 27.6509 31.3472 20.5556 31.3472 13.4602 25.5954 7.70833 18.5 7.70833 11.4047 7.70833 5.65278 13.4602 5.65278 20.5556 5.65278 27.6509 11.4047 33.4028 18.5 33.4028Z" stroke="#33338B" stroke-width="2.05556" fill="none" transform="matrix(1.02703 0 0 1 633 351)"/><path d="M13.875 2.56944 23.125 2.56944" stroke="#33338B" stroke-width="3.08333" stroke-linecap="round" stroke-linejoin="round" fill="none" transform="matrix(1.02703 0 0 1 633 351)"/><path d="M18.5 2.56944 18.5 7.70833" stroke="#33338B" stroke-width="3.08333" stroke-linecap="round" stroke-linejoin="round" fill="none" transform="matrix(1.02703 0 0 1 633 351)"/><path d="M18.5 33.4028C25.5954 33.4028 31.3472 27.6509 31.3472 20.5556 31.3472 13.4602 25.5954 7.70833 18.5 7.70833 11.4047 7.70833 5.65278 13.4602 5.65278 20.5556 5.65278 27.6509 11.4047 33.4028 18.5 33.4028Z" stroke="#33338B" stroke-width="3.08333" stroke-linecap="round" stroke-linejoin="round" fill="none" transform="matrix(1.02703 0 0 1 633 351)"/><path d="M13.7764 15.8319 18.5001 20.5556" stroke="#33338B" stroke-width="3.08333" stroke-linecap="round" stroke-linejoin="round" fill="none" transform="matrix(1.02703 0 0 1 633 351)"/><path d="M29.2917 5.65278 33.4028 9.76389" stroke="#33338B" stroke-width="3.08333" stroke-linecap="round" stroke-linejoin="round" fill="none" transform="matrix(1.02703 0 0 1 633 351)"/></g></svg>