<svg width="37" height="38" xmlns="http://www.w3.org/2000/svg" xmlns:xlink="http://www.w3.org/1999/xlink" xml:space="preserve" overflow="hidden"><g transform="translate(-45 -230)"><path d="M20.0417 6.253 20.0417 4.11111 23.125 4.11111C23.976 4.11111 24.6667 3.42044 24.6667 2.56944 24.6667 1.71844 23.976 1.02778 23.125 1.02778L13.875 1.02778C13.024 1.02778 12.3333 1.71844 12.3333 2.56944 12.3333 3.42044 13.024 4.11111 13.875 4.11111L16.9583 4.11111 16.9583 6.253C9.74745 7.02589 4.11111 13.1432 4.11111 20.5556 4.11111 28.49 10.5656 34.9444 18.5 34.9444 26.4344 34.9444 32.8889 28.49 32.8889 20.5556 32.8889 13.1432 27.2526 7.02383 20.0417 6.253ZM19.5894 21.6471C19.2893 21.9472 18.8947 22.0993 18.5 22.0993 18.1053 22.0993 17.7107 21.9492 17.4106 21.6471L12.6869 16.9234C12.0846 16.3211 12.0846 15.3447 12.6869 14.7424 13.2892 14.1402 14.2656 14.1402 14.8678 14.7424L19.5915 19.4661C20.1938 20.0684 20.1938 21.0448 19.5915 21.6471Z" fill="#33338B" transform="matrix(1 0 0 1.02703 45 230)"/><path d="M33.4028 11.3056C33.0081 11.3056 32.6134 11.1555 32.3133 10.8533L28.2022 6.74222C27.5999 6.13994 27.5999 5.16356 28.2022 4.56128 28.8045 3.959 29.7809 3.959 30.3832 4.56128L34.4943 8.67239C35.0966 9.27467 35.0966 10.2511 34.4943 10.8533 34.1942 11.1534 33.7995 11.3056 33.4048 11.3056Z" fill="#33338B" transform="matrix(1 0 0 1.02703 45 230)"/></g></svg>